<svg xmlns="http://www.w3.org/2000/svg" width="350" height="100" viewBox="0 0 350 100">
	<path fill="#333" d="M247.158 35.251h5.759c2.316 0 4.095.274 5.342.824 1.245.548 2.227 1.393 2.946 2.53.724 1.14 1.083 2.402 1.083 3.792 0 1.297-.317 2.479-.948 3.544-.632 1.065-1.561 1.929-2.787 2.591 1.518.515 2.687 1.122 3.504 1.815.818.695 1.456 1.538 1.91 2.521.455.987.683 2.057.683 3.207 0 2.343-.856 4.324-2.569 5.947-1.716 1.621-4.016 2.431-6.897 2.431h-8.024v-29.202zm2.861 2.858v9.349h1.672c2.028 0 3.521-.188 4.476-.564.954-.377 1.713-.973 2.269-1.786.559-.815.836-1.717.836-2.711 0-1.337-.468-2.385-1.404-3.147-.932-.761-2.422-1.141-4.465-1.141h-3.384zm0 12.288v11.198h3.62c2.132 0 3.698-.208 4.693-.627.994-.415 1.791-1.065 2.396-1.954.603-.886.903-1.847.903-2.879 0-1.298-.423-2.429-1.27-3.396-.851-.965-2.016-1.627-3.5-1.983-.995-.239-2.725-.359-5.192-.359h-1.65zM269.642 35.274h2.78v29.18h-2.78v-29.18zM288.506 42.298c3.328 0 6.088 1.204 8.275 3.612 1.988 2.198 2.984 4.798 2.984 7.805 0 3.017-1.053 5.654-3.154 7.909-2.102 2.259-4.804 3.387-8.105 3.387-3.313 0-6.022-1.128-8.122-3.387-2.102-2.255-3.152-4.893-3.152-7.909 0-2.995.996-5.589 2.985-7.783 2.184-2.424 4.951-3.634 8.289-3.634zm-.008 2.721c-2.311 0-4.298.853-5.957 2.56-1.66 1.707-2.49 3.774-2.49 6.193 0 1.562.378 3.02 1.137 4.369.754 1.351 1.778 2.392 3.068 3.125 1.288.736 2.702 1.103 4.242 1.103 1.541 0 2.955-.366 4.243-1.103 1.288-.733 2.311-1.774 3.068-3.125.759-1.35 1.135-2.807 1.135-4.369 0-2.419-.834-4.486-2.498-6.193-1.67-1.707-3.651-2.56-5.948-2.56zM322.304 42.854h2.696v17.213c0 3.031-.258 5.249-.771 6.649-.705 1.987-1.935 3.515-3.678 4.588-1.748 1.071-3.846 1.608-6.299 1.608-1.797 0-3.409-.264-4.843-.787-1.431-.523-2.596-1.229-3.493-2.109-.899-.883-1.728-2.175-2.484-3.874h2.926c.797 1.429 1.825 2.49 3.085 3.177 1.261.688 2.821 1.032 4.686 1.032 1.84 0 3.391-.354 4.656-1.059s2.169-1.593 2.709-2.66c.542-1.071.81-2.794.81-5.176v-1.112c-1.014 1.323-2.255 2.341-3.721 3.048-1.464.71-3.02 1.062-4.665 1.062-1.928 0-3.739-.493-5.436-1.479-1.699-.987-3.007-2.313-3.934-3.979-.926-1.668-1.386-3.502-1.386-5.501 0-1.997.48-3.862 1.443-5.589.965-1.726 2.3-3.093 4.001-4.099 1.702-1.007 3.497-1.509 5.389-1.509 1.567 0 3.029.334 4.385 1.001 1.355.668 2.663 1.771 3.923 3.306v-3.751zm-7.954 2.123c-1.527 0-2.944.382-4.257 1.143-1.308.763-2.334 1.812-3.08 3.156-.744 1.345-1.116 2.797-1.116 4.36 0 2.369.771 4.328 2.31 5.875 1.542 1.55 3.539 2.322 5.99 2.322 2.478 0 4.473-.767 5.979-2.302 1.509-1.535 2.263-3.555 2.263-6.055 0-1.63-.346-3.081-1.04-4.359-.693-1.276-1.675-2.286-2.944-3.027-1.274-.741-2.64-1.113-4.105-1.113z"/>
	<path fill="#333" d="M95.022 36.198h2.909v12.21h16.207v-12.21h2.91v29.114h-2.91v-14.054h-16.207v14.055h-2.909v-29.115zM143.8 43.776v21.536h-2.731v-3.702c-1.161 1.415-2.464 2.478-3.911 3.188-1.443.713-3.023 1.068-4.74 1.068-3.047 0-5.649-1.105-7.808-3.315-2.158-2.208-3.236-4.898-3.236-8.064 0-3.103 1.089-5.753 3.267-7.958 2.176-2.203 4.796-3.305 7.856-3.305 1.771 0 3.37.376 4.802 1.128 1.43.752 2.688 1.879 3.77 3.383v-3.959h2.731zm-11.074 2.12c-1.541 0-2.964.378-4.271 1.135-1.303.76-2.342 1.823-3.112 3.193-.773 1.373-1.155 2.82-1.155 4.35 0 1.517.388 2.968 1.166 4.35.777 1.387 1.821 2.464 3.134 3.234 1.311.771 2.717 1.155 4.22 1.155 1.516 0 2.951-.385 4.311-1.147 1.355-.762 2.4-1.799 3.132-3.103.732-1.305 1.097-2.776 1.097-4.412 0-2.489-.819-4.571-2.46-6.244-1.642-1.673-3.662-2.511-6.062-2.511zM152.45 35.782h2.772v7.995h4.393v2.396h-4.393v19.14h-2.772v-19.14h-3.78v-2.396h3.78v-7.995zM181.901 58.168l2.337 1.225c-.769 1.504-1.652 2.719-2.655 3.643-1.004.926-2.135 1.627-3.39 2.109-1.253.48-2.674.722-4.258.722-3.512 0-6.26-1.152-8.241-3.452-1.981-2.304-2.974-4.908-2.974-7.812 0-2.729.84-5.165 2.521-7.302 2.124-2.718 4.97-4.077 8.535-4.077 3.674 0 6.605 1.391 8.795 4.176 1.56 1.965 2.351 4.42 2.379 7.362h-19.377c.051 2.503.853 4.555 2.398 6.153 1.547 1.599 3.453 2.398 5.728 2.398 1.096 0 2.161-.192 3.2-.572 1.036-.379 1.919-.888 2.645-1.52.724-.628 1.511-1.649 2.357-3.053zm0-5.8c-.372-1.478-.909-2.66-1.615-3.543-.709-.885-1.644-1.596-2.805-2.137-1.163-.541-2.383-.811-3.665-.811-2.116 0-3.931.679-5.45 2.038-1.11.987-1.95 2.472-2.516 4.453h16.051zM189.203 42.937h2.771v3.861c1.107-1.479 2.334-2.583 3.68-3.316 1.345-.73 2.811-1.097 4.396-1.097 1.608 0 3.037.41 4.284 1.228 1.249.819 2.167 1.919 2.76 3.305.593 1.383.894 3.541.894 6.47v11.086h-2.772v-10.274c0-2.479-.102-4.137-.309-4.968-.32-1.425-.936-2.497-1.846-3.215-.914-.719-2.1-1.08-3.563-1.08-1.676 0-3.179.556-4.503 1.663-1.327 1.109-2.202 2.481-2.623 4.116-.266 1.07-.396 3.022-.396 5.859v7.897h-2.771v-21.535zM234.576 42.937v21.536h-2.731v-3.702c-1.163 1.414-2.465 2.478-3.908 3.188-1.445.712-3.025 1.067-4.741 1.067-3.048 0-5.652-1.104-7.805-3.315-2.161-2.21-3.238-4.898-3.238-8.065 0-3.102 1.088-5.752 3.265-7.957 2.178-2.203 4.796-3.304 7.856-3.304 1.771 0 3.369.376 4.8 1.127 1.433.753 2.688 1.879 3.771 3.385v-3.959h2.731zm-11.074 2.119c-1.543 0-2.966.379-4.271 1.136-1.306.76-2.345 1.824-3.113 3.193-.772 1.372-1.157 2.822-1.157 4.351 0 1.515.391 2.968 1.166 4.35.778 1.384 1.825 2.459 3.134 3.232 1.31.771 2.719 1.157 4.221 1.157 1.516 0 2.952-.385 4.31-1.147 1.357-.765 2.402-1.801 3.134-3.105.734-1.304 1.098-2.775 1.098-4.409 0-2.49-.821-4.572-2.461-6.245-1.643-1.675-3.665-2.513-6.061-2.513zM51.87 76.871c-14.817 0-26.87-12.054-26.87-26.871 0-14.816 12.053-26.872 26.87-26.872 14.819 0 26.871 12.055 26.871 26.872s-12.053 26.871-26.871 26.871zm0-50.325c-12.932 0-23.454 10.52-23.454 23.454 0 12.933 10.522 23.455 23.454 23.455 12.934 0 23.456-10.522 23.456-23.455 0-12.934-10.522-23.454-23.456-23.454zM55 36.731c-1.313-2.658-2.114-5.243-2.52-6.75v19.032c.665.25 1.14.885 1.14 1.635 0 .967-.783 1.75-1.75 1.75s-1.75-.784-1.75-1.75c0-.787.523-1.445 1.237-1.666v-19.021c-.403 1.503-1.204 4.1-2.525 6.77-2.057 4.161-4.62 7.831-4.62 7.831l1.64 22.439s1.56 1.74 6.061 1.742h.006c4.502-.002 6.061-1.742 6.061-1.742l1.64-22.439s-2.564-3.67-4.62-7.831z"/>
</svg>