<?xml version="1.0" encoding="UTF-8"?>
<svg width="1000px" height="563px" viewBox="0 0 1000 563" version="1.1" xmlns="http://www.w3.org/2000/svg" xmlns:xlink="http://www.w3.org/1999/xlink">
    <!-- Generator: Sketch 64 (93537) - https://sketch.com -->
    <title>normal/logo</title>
    <desc>Created with Sketch.</desc>
    <g id="normal/logo" stroke="none" stroke-width="1" fill="none" fill-rule="evenodd">
        <rect fill="#FFFFFF" x="0" y="0" width="1000" height="563"></rect>
        <path d="M539.181852,251.652072 C560.888465,251.652072 577.272112,267.529267 577.272112,288.475158 C577.272112,309.42105 560.888465,325.300329 539.181852,325.300329 C517.475238,325.300329 501.091591,309.42105 501.091591,288.475158 C501.091591,267.529267 517.475238,251.652072 539.181852,251.652072 Z M705.229627,251.989707 C728.707784,251.989707 739.437082,270.232433 739.437082,290.165419 C739.437082,291.474277 739.437082,292.741451 739.307864,294.050309 C739.229707,294.841641 738.85297,295.336224 738.110675,295.394956 L737.957323,295.40085 L690.196521,295.40085 C692.138966,304.058485 697.797483,309.252232 707.426341,309.252232 C713.251591,309.252232 718.024337,307.774557 723.726621,302.918445 C724.279065,302.445756 724.867819,302.377932 725.4573,302.816645 L725.583615,302.918445 L734.874838,311.280128 C735.508425,311.828265 735.635559,312.547303 735.045739,313.222573 C728.076281,321.202854 718.995559,325.300329 707.172072,325.300329 C685.888545,325.300329 670.434437,310.350589 670.434437,288.560609 C670.434437,268.544257 684.704737,251.989707 705.229627,251.989707 Z M627.358846,235.266341 C628.202934,235.266341 628.709387,235.772794 628.709387,236.616882 L628.709387,253.340248 L643.911311,253.340248 C644.755399,253.340248 645.261852,253.846701 645.261852,254.692874 L645.261852,268.881892 C645.261852,269.72598 644.755399,270.232433 643.911311,270.232433 L628.709387,270.232433 L628.709387,300.890549 C628.709387,305.53616 630.778966,307.732874 634.874357,307.732874 C637.915158,307.732874 640.405739,307.478605 643.404858,305.959246 C644.334397,305.494477 645.009667,305.790429 645.009667,306.719968 L645.009667,319.979447 C645.009667,320.654717 644.755399,321.246621 644.080128,321.667623 C640.405739,323.949788 635.549627,325.300329 629.21584,325.300329 C618.278124,325.300329 610.466661,321.371671 608.986902,308.872914 C608.828635,307.526671 608.78394,305.735304 608.778971,303.394057 L608.778485,270.232433 L601.681892,270.232433 C600.837804,270.232433 600.331351,269.72598 600.331351,268.881892 L600.331351,254.692874 C600.331351,253.846701 600.837804,253.340248 601.681892,253.340248 L608.778485,253.340248 L608.778485,236.616882 C608.778485,235.772794 609.284938,235.266341 610.129026,235.266341 L627.358846,235.266341 Z M451.598846,251.652072 C464.308104,251.652072 472.50097,258.788265 474.783134,270.738886 C475.204136,272.935599 475.414637,275.553315 475.414637,278.890068 L475.414637,322.259527 C475.414637,323.103615 474.908184,323.612152 474.064096,323.612152 L456.834277,323.612152 C455.990188,323.612152 455.483735,323.103615 455.483735,322.259527 L455.483735,284.083816 C455.483735,274.709226 451.004858,269.72598 443.40598,269.72598 C435.802934,269.72598 430.988505,274.623776 430.988505,284.083816 L430.988505,322.259527 C430.988505,323.103615 430.484136,323.612152 429.637964,323.612152 L412.408144,323.612152 C411.564056,323.612152 411.055519,323.103615 411.055519,322.259527 L411.055519,254.692874 C411.055519,253.846701 411.564056,253.340248 412.408144,253.340248 L429.637964,253.340248 C430.484136,253.340248 430.988505,253.846701 430.988505,254.692874 L430.988505,262.714838 C437.618244,253.846701 445.346341,251.652072 451.598846,251.652072 Z M539.181852,268.879808 C527.864818,268.879808 520.770309,278.002212 520.770309,288.475158 C520.770309,298.948104 527.864818,308.070509 539.181852,308.070509 C550.50097,308.070509 557.593395,298.948104 557.593395,288.475158 C557.593395,278.002212 550.50097,268.879808 539.181852,268.879808 Z M705.229627,267.952353 C697.287984,267.952353 692.130636,273.355259 689.876949,282.551608 L689.773435,282.985459 L720.052232,282.985459 C718.657924,274.202774 713.845579,267.952353 705.229627,267.952353 Z" id="Shape" fill="#000000"></path>
        <path d="M306.495711,272.427896 L292.558878,272.427896 C290.912385,272.427896 290.364248,272.342445 289.518076,272.090261 C287.24008,271.41499 285.464369,269.13491 285.464369,266.431743 C285.464369,263.728577 287.24008,261.448497 289.518076,260.773226 C290.364248,260.518958 290.912385,260.435591 292.558878,260.435591 L301.595832,260.435591 L301.595832,251.398637 C301.595832,249.75006 301.681283,249.201924 301.935551,248.357836 C302.610822,246.033988 304.890902,244.302044 307.591984,244.302044 C310.29515,244.302044 312.577315,246.075671 313.252585,248.357836 C313.50477,249.201924 313.59022,249.75006 313.59022,251.398637 L313.59022,265.333387 C313.59022,266.177475 313.59022,267.023647 313.421403,267.782285 C312.956633,269.895631 311.055872,271.794309 308.944609,272.259078 C308.185972,272.427896 307.3398,272.427896 306.495711,272.427896 L306.495711,272.427896 Z M351.259479,323.610902 L276.512866,323.610902 L276.512866,257.774108 C276.512866,256.93002 276.808818,256.213066 277.398637,255.621162 L296.783487,236.236313 C297.373307,235.646493 298.092345,235.350541 298.936433,235.350541 L351.259479,235.350541 L351.259479,323.610902 Z M265.195832,246.711343 C263.209619,248.695471 261.902846,251.188136 261.646493,253.974669 C261.60481,254.439439 261.563126,255.114709 261.563126,255.78998 L261.563126,330.240641 C261.563126,331.211864 261.60481,331.718317 261.646493,332.099719 C261.986212,335.265571 264.856112,338.137555 268.024048,338.47519 C268.405451,338.516874 268.911904,338.560641 269.883126,338.560641 L357.889218,338.560641 C358.860441,338.560641 359.366894,338.516874 359.748297,338.47519 C362.914148,338.137555 365.786132,335.265571 366.123768,332.099719 C366.167535,331.718317 366.207134,331.211864 366.207134,330.240641 L366.207134,228.720802 C366.207134,227.749579 366.167535,227.243126 366.123768,226.861723 C365.786132,223.695872 362.914148,220.823888 359.748297,220.486253 C359.366894,220.444569 358.860441,220.400802 357.889218,220.400802 L296.952305,220.400802 C296.277034,220.400802 295.599679,220.444569 295.136994,220.486253 C292.348377,220.738437 289.857796,222.047295 287.871583,224.033507 L265.195832,246.711343 Z" id="Shape" fill="#41C9B4"></path>
    </g>
</svg>